PathFileType	4	(X/Y/Z)	C:/Users/beibeiliu/ov580/test_trc/User3\sequence.10_training_dense_left.trc
DataRate	CameraRate	NumFrames	NumMarkers	Units	OrigDataRate	OrigDataStartFrame	OrigNumFrames
120	120	19	19	mm	120	165	263
Frame#	Time	ThumbCMC			ThumbMCP			ThumbIP			ThumbTip			IndexMCP			IndexPIP			IndexTip			MiddleMCP			MiddlePIP			MiddleTip			RingMCP			RingPIP			RingTip			PinkyMCP			PinkyPIP			PinkyTip			BackHand1			BackHand2			BackHand3	
		X0	Y0	Z0	X1	Y1	Z1	X2	Y2	Z2	X3	Y3	Z3	X4	Y4	Z4	X5	Y5	Z5	X6	Y6	Z6	X7	Y7	Z7	X8	Y8	Z8	X9	Y9	Z9	X10	Y10	Z10	X11	Y11	Z11	X12	Y12	Z12	X13	Y13	Z13	X14	Y14	Z14	X15	Y15	Z15	X16	Y16	Z16	X17	Y17	Z17	X18	Y18	Z18	
164	1.36667	-176.818	-20.2719	10.7824	-165.68	-21.2585	-14.0148	-160.454	-19.8589	-44.53	-149.421	-19.2833	-63.4643	-189.574	-34.7745	-60.2191	-179.339	-64.0077	-51.303	-182.45	-54.5952	-21.1096	-209.077	-42.2994	-56.6454	-197.44	-71.1844	-42.7344	-199.299	-48.9452	-9.54802	-224.782	-52.9422	-45.0823	-212.262	-76.6227	-30.0309	-203.702	-59.126	-3.96803	-239.647	-58.322	-33.0203	-217.323	-72.4853	-19.702	-215.685	-51.4434	3.32893	-238.086	-13.8652	-5.92272	-236.314	-12.2573	27.6684	-204.31	-0.984767	4.26407	
165	1.375	-174.338	-20.3269	10.0532	-166.043	-22.8465	-14.7325	-156.171	-21.3167	-45.0192	-146.823	-21.927	-63.8598	-188.135	-33.5729	-59.1047	-181.696	-66.664	-49.6865	-184.513	-56.078	-19.9602	-210.043	-46.8282	-56.929	-196.193	-73.5089	-41.1162	-195.067	-49.8272	-10.3851	-220.349	-53.8679	-46.8016	-207.779	-76.982	-28.6532	-203.019	-58.7843	-3.53818	-234.672	-59.3239	-35.9491	-221.449	-76.9626	-19.4384	-217.134	-55.6795	1.03102	-238.641	-12.3587	-7.80961	-233.84	-9.78727	21.9569	-206.414	-1.81036	4.23377	
166	1.38333	-171.842	-22.3873	10.7639	-160.459	-25.1951	-13.5023	-147.41	-22.5131	-41.8188	-142.625	-25.1501	-60.9621	-185.048	-36.8498	-57.9328	-177.217	-69.5769	-49.1906	-178.179	-54.9981	-17.4431	-204.988	-51.0883	-59.6532	-193.249	-76.0982	-41.9788	-195.797	-52.6294	-10.0506	-223.345	-57.361	-46.8019	-206.943	-78.7092	-30.7952	-206.292	-61.1265	-3.03737	-234.205	-65.1689	-36.0884	-215.979	-75.409	-19.0765	-217.772	-57.4042	3.65001	-237.235	-14.1506	-9.61145	-231.544	-11.5518	21.6223	-199.861	-4.13037	1.30896	
167	1.39167	-171.723	-24.4814	15.7855	-160.045	-27.2786	-13.4185	-143.401	-26.2203	-34.6594	-131.74	-26.9975	-54.1374	-178.86	-44.4371	-59.4956	-172.558	-73.7849	-46.0334	-177.752	-59.254	-16.5364	-201.742	-55.1226	-58.2811	-189.323	-79.8513	-42.9793	-196.175	-56.9318	-10.0304	-215.753	-58.9119	-46.8861	-203.498	-83.3952	-28.3122	-203.624	-61.2674	-1.76217	-229.135	-65.487	-37.7703	-215.911	-81.6181	-18.254	-217.123	-61.3966	4.95285	-234.561	-17.7521	-14.9949	-233.367	-15.3514	18.7172	-199.698	-7.22511	-0.280137	
168	1.4	-175.279	-25.8114	14.1451	-158.835	-29.0229	-5.22513	-143.46	-27.817	-32.3393	-125.257	-25.9094	-44.3514	-173.058	-46.1157	-55.668	-166.096	-76.2487	-41.9217	-174.893	-62.6755	-13.0598	-192.029	-58.981	-56.9934	-182.062	-83.6629	-39.8128	-191.745	-57.8988	-6.86852	-207.421	-69.6305	-46.2595	-194.463	-85.0592	-25.0714	-198.372	-65.8313	-1.62452	-223.684	-72.4553	-37.1274	-207.118	-83.7269	-15.7413	-211.199	-63.6153	2.50313	-232.088	-23.2965	-15.376	-236.747	-20.2381	14.899	-201.32	-7.224	1.65243	
169	1.40833	-173.304	-24.2444	21.5581	-160.33	-28.7033	-5.17717	-141.436	-25.6698	-27.0168	-124	-23.9919	-35.7359	-165.451	-47.8285	-51.2952	-153.358	-75.0104	-36.1814	-166.158	-62.8572	-9.44776	-186.743	-62.4088	-54.2521	-169.796	-84.513	-33.1963	-183.684	-64.0778	-4.41941	-200.896	-70.306	-44.4999	-190.427	-91.2037	-21.4147	-197.715	-65.0835	4.09142	-212.215	-77.249	-36.2806	-203.268	-89.2688	-12.3545	-210.311	-67.8633	5.65297	-228.435	-29.5151	-17.0917	-236.403	-22.2582	13.4362	-204.766	-11.3721	0.386696	
170	1.41667	-175.762	-22.3489	19.2271	-155.898	-24.1428	2.41234	-138.282	-20.8294	-15.792	-119.297	-16.7897	-30.0682	-158.388	-51.1724	-46.8594	-146.425	-73.4735	-30.2823	-164.041	-61.2598	-4.07698	-176.238	-67.649	-50.4762	-159.358	-84.6884	-26.0094	-181.894	-66.788	-1.86039	-189.838	-80.6749	-39.7525	-178.651	-90.8027	-12.8245	-189.928	-70.52	6.69332	-206.292	-86.1371	-32.6693	-192.046	-91.4832	-10.4795	-204.966	-67.9514	7.87567	-228.996	-40.3045	-18.2617	-239.746	-32.2311	10.4729	-207.406	-15.202	0.913216	
171	1.425	-178.61	-20.0916	22.8227	-160.186	-23.5801	3.3076	-140.474	-16.7927	-17.0116	-124.307	-10.748	-24.1214	-152.997	-48.7684	-42.8619	-141.29	-69.7445	-26.2168	-160.581	-58.7131	0.0192427	-168.777	-66.8417	-45.7114	-152.15	-82.2977	-24.0365	-176.715	-62.6965	3.85803	-181.551	-77.9675	-36.1089	-169.699	-91.5183	-12.2668	-186.099	-68.147	11.7919	-197.886	-88.6302	-29.0843	-182.642	-92.2998	-3.74538	-196.686	-73.3305	11.6357	-225.004	-47.3837	-21.5525	-239.275	-37.6593	11.9488	-205.791	-17.1073	2.54363	
172	1.43333	-180.46	-18.6491	23.0717	-159.518	-16.0818	6.01583	-142.852	-9.01331	-16.1276	-124.998	0.968358	-20.5187	-153.062	-41.7324	-40.4415	-133.87	-63.6241	-23.7222	-151.283	-53.8113	2.98891	-165.15	-64.9989	-41.4915	-144.802	-76.4239	-17.3094	-174.734	-58.9214	6.32236	-170.739	-78.3297	-32.756	-161.061	-86.5336	-4.82752	-181.397	-69.6544	13.8916	-188.64	-92.4515	-25.8283	-174.69	-90.8012	0.374977	-194.925	-71.7525	16.4106	-219.091	-48.4671	-20.2585	-236.753	-45.3469	8.57891	-210.906	-22.7463	1.70611	
173	1.44167	-184.456	-17.7744	19.8295	-164.213	-14.5127	-0.0379899	-144.911	-0.417137	-19.3837	-132.177	7.31969	-26.6705	-151.903	-39.9261	-40.3291	-128.584	-54.6842	-18.0036	-150.338	-50.9771	3.97723	-158.035	-62.0899	-39.0468	-138.966	-69.6973	-11.3798	-170.46	-53.0635	8.34116	-166.745	-74.6095	-30.1024	-153.531	-84.3995	-3.30938	-172.961	-62.1659	16.1745	-175.881	-89.9604	-24.4036	-164.434	-86.566	1.61505	-187.361	-72.2374	16.9592	-217.715	-51.5164	-18.7495	-230.916	-50.4686	7.13085	-208.612	-20.8859	-2.64094	
174	1.45	-187.729	-13.9556	16.5202	-170.783	-9.31485	-4.60701	-153.693	6.10682	-25.641	-143.09	12.5819	-37.5181	-150.643	-30.8318	-41.1019	-126.631	-44.0355	-19.4621	-150.307	-38.624	3.94811	-151.552	-57.304	-38.0544	-133.899	-60.1246	-9.16574	-163.9	-51.0822	8.80429	-156.8	-74.8914	-27.1329	-143.554	-69.8369	0.383384	-169.477	-57.7396	15.7868	-164.563	-88.0557	-20.3718	-152.81	-79.4594	2.84696	-178.639	-69.0007	16.6049	-213.417	-61.7807	-20.3825	-229.406	-57.6885	8.11212	-211.866	-25.4104	-3.45248	
175	1.45833	-194.751	-10.0997	16.0705	-178.413	-0.869937	-9.35532	-165.389	6.08993	-32.5337	-155.545	20.5256	-44.5877	-152.284	-30.9774	-43.0614	-125.755	-26.8305	-24.7553	-150.207	-24.634	1.07573	-147.524	-52.5233	-38.6887	-127.862	-49.1008	-13.924	-164.539	-41.9496	6.5488	-150.468	-66.7719	-25.2545	-137.578	-57.0989	1.21191	-163.282	-49.1571	15.52	-153.161	-82.8584	-15.7631	-144.853	-70.3006	6.3897	-172.185	-61.3534	18.5691	-208.668	-64.3793	-12.2218	-223.184	-60.6341	11.5767	-214.54	-29.7499	-3.45056	
176	1.46667	-200.087	-7.95543	8.25987	-187.969	0.876057	-14.7954	-177.525	8.11102	-38.9108	-170.855	18.8941	-54.3642	-155.791	-26.9621	-45.4924	-131.078	-18.9844	-24.3846	-153.515	-16.1471	-3.60606	-146.312	-45.8811	-38.922	-128.027	-33.0607	-17.1603	-165.28	-31.6608	4.52735	-145.93	-59.9063	-23.2255	-133.045	-48.3255	1.30904	-165.923	-39.4647	12.8242	-147.648	-70.1408	-13.3436	-140.865	-56.9383	11.8956	-168.917	-54.9956	20.0436	-202.453	-69.2039	-9.34508	-218.215	-65.4577	15.5331	-215.595	-33.6258	-7.38358	
177	1.475	-209.808	-5.03545	4.74481	-197.99	1.20614	-19.8738	-191.091	7.54451	-43.1321	-185.352	15.5735	-65.0317	-156.754	-20.5404	-50.114	-135.576	-8.20266	-30.2285	-163.002	-8.8633	-8.54398	-149.259	-40.5966	-39.7754	-131.04	-22.3857	-16.2286	-163.884	-26.9051	1.36012	-143.565	-49.0341	-25.3105	-132.036	-35.6091	-1.60582	-166.017	-32.4265	11.2359	-143.686	-66.8629	-9.21733	-136.328	-46.339	10.4356	-167.028	-48.414	20.2482	-195.694	-70.6425	-9.6611	-213.787	-67.7466	21.5064	-217.921	-39.576	-5.50677	
178	1.48333	-214.55	-5.56645	1.39707	-202.844	-4.82201	-22.4315	-201.061	6.91402	-51.3826	-197.552	15.8447	-67.8008	-163.441	-19.7917	-50.9509	-139.513	-3.81369	-33.7806	-169.18	-4.85335	-11.3786	-147.854	-32.4535	-43.6369	-135.535	-13.313	-20.1574	-168.11	-21.2722	-2.00398	-144.696	-45.6509	-26.6163	-133.144	-28.5176	-1.50273	-164.895	-25.2504	9.13276	-138.696	-58.1555	-9.35602	-135.814	-37.311	5.20738	-164.992	-38.9293	16.8148	-192.319	-70.406	-5.96528	-212.639	-65.0126	17.3672	-219.617	-39.5034	-7.49372	
179	1.49167	-217.866	-5.39165	1.38889	-209.109	-1.79828	-21.7267	-204.199	2.76213	-52.3386	-201.65	10.4143	-69.2667	-161.244	-19.7384	-52.9861	-144.752	1.46786	-40.0313	-166.717	-4.41583	-13.5161	-152.51	-33.3052	-44.1717	-136.069	-11.8633	-26.0675	-167.682	-20.0042	-3.15497	-144.063	-47.341	-24.3548	-133.865	-24.0886	-8.13205	-165.64	-23.8392	7.82251	-138.519	-54.7969	-9.51958	-138.191	-31.4362	4.90598	-164.426	-36.3339	17.1235	-194.025	-68.7226	-3.2508	-213.047	-61.7639	21.2269	-220.267	-40.752	-5.26979	
180	1.5	-219.44	-7.44478	-1.53723	-212.601	-2.49558	-24.3544	-210.405	1.95588	-58.3548	-206.838	7.23954	-77.6409	-166.645	-24.9674	-52.4827	-147.507	-1.02427	-37.9118	-174.442	-2.35508	-18.0094	-151.743	-31.3197	-45.7341	-140.065	-8.99772	-25.3472	-172.378	-18.889	-5.09197	-142.122	-43.9957	-27.1202	-135.281	-20.902	-12.2304	-166.764	-22.6688	6.28776	-142.274	-51.0135	-12.3721	-138.185	-29.3257	2.14208	-164.68	-32.2667	16.5603	-196.125	-66.099	-7.18715	-211.917	-65.7588	18.5813	-218.63	-42.0872	-4.67753	
181	1.50833	-220.237	-9.3125	-2.89099	-216.182	-3.86942	-31.2238	-215.096	0.655644	-56.8019	-213.218	5.28693	-78.2922	-167.233	-22.7109	-57.3368	-151.189	-1.74977	-44.167	-180.678	-4.10616	-22.1949	-155.081	-35.3775	-46.663	-142.292	-9.52684	-33.2441	-174.434	-20.4308	-6.86547	-147.881	-46.8914	-26.9421	-139.735	-19.2408	-10.85	-166.969	-21.0521	3.39311	-142.752	-55.3668	-10.1711	-141.321	-27.0091	-2.21179	-166.601	-31.2096	14.9041	-197.052	-66.6206	-5.41025	-212.655	-62.6514	24.1492	-218.779	-44.6837	-8.07614	
182	1.51667	-222.642	-8.17636	-0.0922913	-217.585	-4.86225	-30.2844	-217.015	-1.22954	-59.5522	-216.597	4.61284	-76.3074	-173.653	-26.3835	-57.9914	-154.472	-2.19999	-47.9448	-181.401	-5.13431	-23.0798	-158.622	-36.5768	-49.3021	-144.792	-10.9986	-30.9719	-172.667	-18.0776	-9.38149	-150.501	-42.1567	-32.4853	-141.671	-20.2442	-14.4196	-172.027	-24.8531	2.64362	-144.077	-53.428	-14.4015	-137.287	-30.8721	-1.25907	-166.402	-33.0187	13.1712	-196.674	-67.4838	-2.11186	-214.855	-61.4334	24.8296	-222.554	-43.0271	-5.20539	
